<?xml version="1.0" encoding="UTF-8"?><svg id="_레이어_2" xmlns="http://www.w3.org/2000/svg" viewBox="0 0 328.65 321.91"><defs><style>.cls-1{fill:#fff;}.cls-2{fill:#231815;}</style></defs><g id="_레이어_5"><circle class="cls-2" cx="167.69" cy="160.96" r="160.96"/><path class="cls-1" d="m317.37,60.83c-4.17-9.64-11.7-14.46-22.6-14.46-5.45,0-10.65,1.12-15.58,3.35-4.94,2.24-9.39,5.87-13.35,10.9-2.69,3.35-5.06,7.09-7.11,11.21-2.06,4.12-4.02,9.12-5.89,14.99-1.87,5.87-3.71,13.14-5.52,21.8-1.81,8.67-3.81,19.22-6,31.65-2.81,15.93-4.85,29.91-6.14,41.93-1.28,12.02-1.78,22.36-1.49,31.03-4.94,6.03-24.39,17.54-34.23,22.25-20.36,9.73-38.45,5.11-44.77-5.35,10.46-7.06,26.52-18.49,36.01-28.47,10.01-10.52,15.38-20.17,17.28-30.9,1.39-7.88.17-16.11-1.95-22.14-2.12-6.04-5.61-10.19-10.71-13.63-5.1-3.43-10.86-4.63-18.24-4.63-8.72,0-16.93,2.31-24.61,6.92-7.69,4.61-14.17,10.9-19.42,18.87-5.26,7.97-8.81,17.15-10.64,27.54-2.72,15.43-.08,33.54,8.68,44.01-11.04,8.53-20.68,14.11-30.9,14.11-8.77,0-13.14-11.44-9.49-23.12l12.44-61.5c2.32-9.79-15.85-10.28-18.6.1l-1.18,4.37c-2.65-3.21-6.18-5.77-10.6-7.65-4.42-1.89-9.08-2.83-13.96-2.83-9.22,0-17.86,2.38-25.89,7.13-8.04,4.75-14.88,11.25-20.52,19.5-5.65,8.25-9.41,17.68-11.28,28.3-1.73,9.78-1.4,18.45.97,25.99,2.37,7.55,6.51,13.42,12.41,17.61,5.9,4.19,13.25,6.29,22.06,6.29,6.99,0,13.6-1.43,19.83-4.3,6.23-2.86,14.52-8.13,19.49-13.3,4.15,9.95,11.92,17.28,25.06,17.52,13.14.24,21.66-1.95,38.93-14.6,8.52,7.54,17.28,14.82,37.47,15.09,18.25.24,33.58-7.54,59.12-24.31.85,3.08,1.97,5.87,3.34,8.39,2.65,4.75,6.32,8.53,11,11.32,4.68,2.79,10.16,4.19,16.45,4.19,8.94,0,17.17-2.66,24.67-7.97,12.35-10.44,2.37-19.12-5.03-14.26-4.85,2.93-10.07,4.4-15.66,4.4-4.33,0-8.01-1.15-11.02-3.46-3.02-2.31-5.13-5.98-6.34-11.01-.31-1.4-.6-2.94-.86-4.61,17.83-18.73,32.47-38.33,43.91-58.8,11.44-20.47,18.86-40.35,22.26-59.64,2.98-16.91,2.39-30.19-1.78-39.83ZM75.66,205.27c-1.72,9.78-5.81,17.68-12.25,23.69-6.44,6.01-14.06,9.01-22.87,9.01-7.97,0-13.72-2.83-17.26-8.49-3.55-5.66-4.44-13.45-2.69-23.37,1.26-7.13,3.7-13.45,7.33-18.97,3.63-5.52,8.03-9.89,13.21-13.1,5.18-3.21,10.77-4.82,16.78-4.82,4.61,0,8.88,1.15,12.81,3.46,3.92,2.31,6.95,5.34,9.08,9.12l-4.14,23.48Zm68.81,10.99c-9.98-12.9-5.87-36.27-.49-45.99,8.76-15.82,14.67-18.33,24.33-22.39,7.54-3.16,15.33-.97,19.47,5.11,3.19,4.69,3.05,13.68.24,19.95-6.33,14.11-29.69,35.53-43.56,43.31Zm156.06-115.81c-2.66,15.09-8.02,30.64-16.09,46.64-8.06,16.01-18.66,32.32-31.79,48.95.76-13.84,3.13-32,7.09-54.5,2.49-14.11,4.67-25.5,6.55-34.17,1.87-8.66,3.72-15.54,5.53-20.65,1.81-5.1,3.71-9.33,5.7-12.68,3.93-6.42,8.62-9.64,14.07-9.64,4.89,0,8.11,3.11,9.68,9.33,1.55,6.22,1.31,15.13-.73,26.73Z"/></g></svg>