<?xml version="1.0" encoding="utf-8"?>
<!-- Generator: Adobe Illustrator 27.7.0, SVG Export Plug-In . SVG Version: 6.00 Build 0)  -->
<svg version="1.1" xmlns="http://www.w3.org/2000/svg" xmlns:xlink="http://www.w3.org/1999/xlink" x="0px" y="0px"
	 viewBox="0 0 328.6 321.9" style="enable-background:new 0 0 328.6 321.9;" xml:space="preserve">
<style type="text/css">
	.st0{fill:#FFFFFF;}
	.st1{fill:#231815;}
</style>
<g id="레이어_2">
	<!-- <rect x="-11.6" y="-9.8" class="st0" width="372.3" height="347.9"/> -->
</g>
<g id="_레이어_2">
	<g>
		<path class="st1" d="M291.6,64.4c-5.5,0-10.1,3.2-14.1,9.6c-2,3.3-3.9,7.6-5.7,12.7c-1.8,5.1-3.7,12-5.5,20.7
			c-1.9,8.7-4.1,20.1-6.5,34.2c-4,22.5-6.3,40.7-7.1,54.5c13.1-16.6,23.7-32.9,31.8-49c8.1-16,13.4-31.5,16.1-46.6l0,0
			c2-11.6,2.3-20.5,0.7-26.7C299.7,67.5,296.5,64.4,291.6,64.4z"/>
		<path class="st1" d="M12.4,177.8c5.6-8.2,12.5-14.8,20.5-19.5c8-4.8,16.7-7.1,25.9-7.1c4.9,0,9.5,0.9,14,2.8
			c4.4,1.9,8,4.4,10.6,7.6l1.2-4.4c2.8-10.4,20.9-9.9,18.6-0.1l-12.4,61.5c-3.7,11.7,0.7,23.1,9.5,23.1c10.2,0,19.9-5.6,30.9-14.1
			c-8.8-10.5-11.4-28.6-8.7-44c1.8-10.4,5.4-19.6,10.6-27.5c5.2-8,11.7-14.3,19.4-18.9c7.7-4.6,15.9-6.9,24.6-6.9
			c7.4,0,13.1,1.2,18.2,4.6c5.1,3.4,8.6,7.6,10.7,13.6c2.1,6,3.3,14.3,1.9,22.1c-1.9,10.7-7.3,20.4-17.3,30.9
			c-9.5,10-25.5,21.4-36,28.5c6.3,10.5,24.4,15.1,44.8,5.3c9.8-4.7,29.3-16.2,34.2-22.2c-0.3-8.7,0.2-19,1.5-31
			c1.3-12,3.3-26,6.1-41.9c2.2-12.4,4.2-23,6-31.7c1.8-8.7,3.7-15.9,5.5-21.8s3.8-10.9,5.9-15c2-4.1,4.4-7.9,7.1-11.2
			c4-5,8.4-8.7,13.3-10.9c1.1-0.5,2.3-1,3.5-1.4C253.5,18.5,212.7,0,167.7,0C78.8,0,6.7,72.1,6.7,161c0,8,0.6,15.8,1.7,23.4
			C9.6,182.1,10.9,179.9,12.4,177.8z"/>
		<path class="st1" d="M188,172.9c2.8-6.3,3-15.3-0.2-19.9c-4.1-6.1-11.9-8.3-19.5-5.1c-9.7,4.1-15.6,6.6-24.3,22.4
			c-5.4,9.7-9.5,33.1,0.5,46C158.3,208.5,181.7,187,188,172.9z"/>
		<path class="st1" d="M79.8,181.8c-2.1-3.8-5.2-6.8-9.1-9.1c-3.9-2.3-8.2-3.5-12.8-3.5c-6,0-11.6,1.6-16.8,4.8
			c-5.2,3.2-9.6,7.6-13.2,13.1s-6.1,11.8-7.3,19c-1.8,9.9-0.9,17.7,2.7,23.4c3.5,5.7,9.3,8.5,17.3,8.5c8.8,0,16.4-3,22.9-9
			s10.5-13.9,12.2-23.7v0L79.8,181.8z"/>
		<path class="st1" d="M318.4,104.5c-3.7,18.1-10.8,36.7-21.5,55.8c-11.4,20.5-26.1,40.1-43.9,58.8c0.3,1.7,0.6,3.2,0.9,4.6
			c1.2,5,3.3,8.7,6.3,11c3,2.3,6.7,3.5,11,3.5c5.6,0,10.8-1.5,15.7-4.4c7.4-4.9,17.4,3.8,5,14.3c-7.5,5.3-15.7,8-24.7,8
			c-6.3,0-11.8-1.4-16.5-4.2s-8.3-6.6-11-11.3c-1.4-2.5-2.5-5.3-3.3-8.4c-25.5,16.8-40.9,24.5-59.1,24.3c-20.2-0.3-29-7.5-37.5-15.1
			c-17.3,12.7-25.8,14.8-38.9,14.6s-20.9-7.6-25.1-17.5c-5,5.2-13.3,10.4-19.5,13.3c-5.9,2.7-12.1,4.1-18.6,4.3
			c29.3,40,76.6,66,129.9,66c88.9,0,161-72.1,161-161C328.7,141.1,325,122,318.4,104.5z"/>
	</g>
</g>
</svg>
