<?xml version="1.0" encoding="UTF-8"?><svg id="_레이어_2" xmlns="http://www.w3.org/2000/svg" viewBox="0 0 372.49 243.73"><defs><style>.cls-1{fill:#040000;}</style></defs><g id="_레이어_5"><path class="cls-1" d="m368.26,16.78c-4.84-11.19-13.58-16.78-26.23-16.78-6.32,0-12.35,1.3-18.08,3.89-5.73,2.59-10.89,6.81-15.49,12.65-3.12,3.89-5.87,8.23-8.25,13.01-2.39,4.79-4.66,10.58-6.84,17.39-2.17,6.81-4.31,15.24-6.4,25.3-2.1,10.06-4.42,22.3-6.96,36.73-3.26,18.49-5.63,34.7-7.12,48.65-1.49,13.95-2.06,25.95-1.73,36-5.74,6.99-28.3,20.36-39.71,25.82-23.62,11.29-44.61,5.93-51.95-6.21,12.14-8.19,30.78-21.46,41.79-33.04,11.61-12.21,17.85-23.4,20.05-35.86,1.61-9.14.2-18.69-2.26-25.69-2.46-7.01-6.51-11.82-12.42-15.81-5.91-3.99-12.6-5.37-21.16-5.37-10.12,0-19.64,2.68-28.56,8.03-8.93,5.35-16.44,12.65-22.54,21.89-6.11,9.25-10.22,19.9-12.35,31.96-3.16,17.91-.09,38.92,10.07,51.06-12.81,9.9-24,16.38-35.86,16.38-10.18,0-15.25-13.27-11.01-26.82l14.43-71.36c2.7-11.36-18.39-11.93-21.59.12l-1.37,5.08c-3.07-3.73-7.17-6.69-12.3-8.88-5.13-2.19-10.53-3.28-16.2-3.28-10.7,0-20.72,2.76-30.04,8.27-9.33,5.51-17.26,13.06-23.81,22.62-6.55,9.57-10.92,20.52-13.09,32.84-2,11.35-1.63,21.41,1.13,30.16,2.75,8.76,7.55,15.57,14.4,20.43,6.84,4.87,15.38,7.3,25.59,7.3,8.11,0,15.78-1.67,23.01-4.99,7.23-3.32,16.85-9.43,22.61-15.43,4.81,11.54,13.84,20.05,29.08,20.33s25.13-2.26,45.18-16.94c9.88,8.75,20.05,17.19,43.48,17.51,21.18.28,38.96-8.75,68.6-28.21.99,3.57,2.28,6.81,3.88,9.73,3.08,5.52,7.33,9.89,12.76,13.14,5.43,3.24,11.79,4.87,19.09,4.87,10.38,0,19.92-3.08,28.63-9.24,14.33-12.12,2.75-22.19-5.84-16.54-5.63,3.41-11.69,5.11-18.17,5.11-5.03,0-9.29-1.34-12.79-4.01-3.5-2.68-5.95-6.93-7.36-12.77-.37-1.62-.7-3.41-1-5.35,20.69-21.73,37.68-44.47,50.95-68.23,13.27-23.75,21.88-46.83,25.83-69.21,3.46-19.62,2.77-35.03-2.07-46.22ZM87.79,184.38c-2,11.35-6.74,20.52-14.21,27.49-7.47,6.97-16.32,10.46-26.53,10.46-9.24,0-15.92-3.28-20.03-9.85-4.11-6.57-5.16-15.6-3.13-27.12,1.46-8.27,4.29-15.6,8.5-22.01,4.21-6.4,9.32-11.47,15.33-15.2,6.01-3.73,12.5-5.59,19.47-5.59,5.35,0,10.31,1.34,14.86,4.01,4.55,2.67,8.07,6.2,10.54,10.58l-4.8,27.24Zm79.84,12.75c-11.58-14.96-6.81-42.09-.56-53.36,10.16-18.35,17.02-21.27,28.24-25.98,8.75-3.67,17.79-1.13,22.59,5.93,3.7,5.45,3.54,15.88.28,23.15-7.34,16.38-34.45,41.22-50.54,50.26ZM348.72,62.76c-3.09,17.51-9.31,35.56-18.67,54.12-9.35,18.57-21.66,37.5-36.89,56.8.88-16.05,3.63-37.13,8.23-63.24,2.89-16.38,5.42-29.59,7.6-39.65,2.17-10.05,4.31-18.04,6.41-23.96,2.1-5.92,4.3-10.82,6.61-14.72,4.56-7.46,10-11.19,16.32-11.19,5.67,0,9.42,3.61,11.23,10.82,1.8,7.22,1.53,17.56-.85,31.01Z"/></g></svg>