<svg xmlns="http://www.w3.org/2000/svg" xmlns:xlink="http://www.w3.org/1999/xlink" version="1.1" x="0px" y="0px" viewBox="0 0 74.111 111.25" enable-background="new 0 0 74.111 89" xml:space="preserve"><g><path d="M37.057,49.472C16.589,49.472,0,66.061,0,86.528C0,87.894,1.104,89,2.469,89c1.366,0,2.472-1.106,2.472-2.472   C4.972,68.791,19.32,54.443,37.057,54.413c17.734,0.03,32.084,14.378,32.114,32.115c0,1.365,1.104,2.472,2.467,2.472   c1.367,0,2.474-1.106,2.474-2.472C74.111,66.061,57.521,49.472,37.057,49.472z"/><path d="M37.056,47.759c13.188-0.003,23.877-10.692,23.881-23.88C60.933,10.69,50.244,0,37.056,0S13.176,10.69,13.176,23.878   C13.176,37.066,23.867,47.756,37.056,47.759z M37.056,4.939c10.459,0.02,18.922,8.48,18.939,18.939   C55.978,34.337,47.515,42.8,37.056,42.82c-10.459-0.02-18.922-8.482-18.94-18.941C18.133,13.419,26.597,4.959,37.056,4.939z"/></g><text x="0" y="104" fill="#000000" font-size="5px" font-weight="bold" font-family="'Helvetica Neue', Helvetica, Arial-Unicode, Arial, Sans-serif">Created by Star and Anchor Design</text><text x="0" y="109" fill="#000000" font-size="5px" font-weight="bold" font-family="'Helvetica Neue', Helvetica, Arial-Unicode, Arial, Sans-serif">from the Noun Project</text></svg>